<svg xmlns="http://www.w3.org/2000/svg" version="1.1" class="w100 h-auto" width="660" height="400" viewBox="0 0 585 395"><g></g><g class="chart-area" font-family="sans-serif" transform="translate(100, 20)"><g transform="translate(0,300)" fill="none" font-size="10" font-family="sans-serif" text-anchor="middle"><path class="domain" stroke="currentColor" d="M0,6V0H410V6"></path><g class="tick" opacity="1" transform="translate(36.34447011179557,0)"><line stroke="currentColor" y2="6"></line><text fill="currentColor" y="9" dy="0.71em" style="font-size: 12px;">2010</text></g><g class="tick" opacity="1" transform="translate(87.55939139858543,0)"><line stroke="currentColor" y2="6"></line><text fill="currentColor" y="9" dy="0.71em" style="font-size: 12px;">2012</text></g><g class="tick" opacity="1" transform="translate(138.84447011179557,0)"><line stroke="currentColor" y2="6"></line><text fill="currentColor" y="9" dy="0.71em" style="font-size: 12px;">2014</text></g><g class="tick" opacity="1" transform="translate(190.05939139858543,0)"><line stroke="currentColor" y2="6"></line><text fill="currentColor" y="9" dy="0.71em" style="font-size: 12px;">2016</text></g><g class="tick" opacity="1" transform="translate(241.34447011179557,0)"><line stroke="currentColor" y2="6"></line><text fill="currentColor" y="9" dy="0.71em" style="font-size: 12px;">2018</text></g><g class="tick" opacity="1" transform="translate(292.5593913985855,0)"><line stroke="currentColor" y2="6"></line><text fill="currentColor" y="9" dy="0.71em" style="font-size: 12px;">2020</text></g><g class="tick" opacity="1" transform="translate(343.8444701117956,0)"><line stroke="currentColor" y2="6"></line><text fill="currentColor" y="9" dy="0.71em" style="font-size: 12px;">2022</text></g><g class="tick" opacity="1" transform="translate(395.0593913985855,0)"><line stroke="currentColor" y2="6"></line><text fill="currentColor" y="9" dy="0.71em" style="font-size: 12px;">2024</text></g></g><g class="grid-lines" transform="translate(0,300)" fill="none" font-size="10" font-family="sans-serif" text-anchor="middle"><path class="domain" stroke="currentColor" d="M0,-300V0H410V-300"></path><g class="tick" opacity="1" transform="translate(36.34447011179557,0)"><line stroke="currentColor" y2="-300" style="stroke: #ccc; fill: none;"></line></g><g class="tick" opacity="1" transform="translate(87.55939139858543,0)"><line stroke="currentColor" y2="-300" style="stroke: #ccc; fill: none;"></line></g><g class="tick" opacity="1" transform="translate(138.84447011179557,0)"><line stroke="currentColor" y2="-300" style="stroke: #ccc; fill: none;"></line></g><g class="tick" opacity="1" transform="translate(190.05939139858543,0)"><line stroke="currentColor" y2="-300" style="stroke: #ccc; fill: none;"></line></g><g class="tick" opacity="1" transform="translate(241.34447011179557,0)"><line stroke="currentColor" y2="-300" style="stroke: #ccc; fill: none;"></line></g><g class="tick" opacity="1" transform="translate(292.5593913985855,0)"><line stroke="currentColor" y2="-300" style="stroke: #ccc; fill: none;"></line></g><g class="tick" opacity="1" transform="translate(343.8444701117956,0)"><line stroke="currentColor" y2="-300" style="stroke: #ccc; fill: none;"></line></g><g class="tick" opacity="1" transform="translate(395.0593913985855,0)"><line stroke="currentColor" y2="-300" style="stroke: #ccc; fill: none;"></line></g></g><text x="205" y="360" class="axis-label x-axis-label" style="text-anchor: middle; font-weight: bold;">Year</text><g fill="none" font-size="10" font-family="sans-serif" text-anchor="end"><path class="domain" stroke="currentColor" d="M-6,300H0V0H-6"></path><g class="tick" opacity="1" transform="translate(0,300)"><line stroke="currentColor" x2="-6"></line><text fill="currentColor" x="-9" dy="0.32em" style="font-size: 12px;">0.00%</text></g><g class="tick" opacity="1" transform="translate(0,280)"><line stroke="currentColor" x2="-6"></line><text fill="currentColor" x="-9" dy="0.32em" style="font-size: 12px;">0.20%</text></g><g class="tick" opacity="1" transform="translate(0,260)"><line stroke="currentColor" x2="-6"></line><text fill="currentColor" x="-9" dy="0.32em" style="font-size: 12px;">0.40%</text></g><g class="tick" opacity="1" transform="translate(0,240)"><line stroke="currentColor" x2="-6"></line><text fill="currentColor" x="-9" dy="0.32em" style="font-size: 12px;">0.60%</text></g><g class="tick" opacity="1" transform="translate(0,220.00000000000003)"><line stroke="currentColor" x2="-6"></line><text fill="currentColor" x="-9" dy="0.32em" style="font-size: 12px;">0.80%</text></g><g class="tick" opacity="1" transform="translate(0,200)"><line stroke="currentColor" x2="-6"></line><text fill="currentColor" x="-9" dy="0.32em" style="font-size: 12px;">1.00%</text></g><g class="tick" opacity="1" transform="translate(0,180)"><line stroke="currentColor" x2="-6"></line><text fill="currentColor" x="-9" dy="0.32em" style="font-size: 12px;">1.20%</text></g><g class="tick" opacity="1" transform="translate(0,160)"><line stroke="currentColor" x2="-6"></line><text fill="currentColor" x="-9" dy="0.32em" style="font-size: 12px;">1.40%</text></g><g class="tick" opacity="1" transform="translate(0,140)"><line stroke="currentColor" x2="-6"></line><text fill="currentColor" x="-9" dy="0.32em" style="font-size: 12px;">1.60%</text></g><g class="tick" opacity="1" transform="translate(0,120)"><line stroke="currentColor" x2="-6"></line><text fill="currentColor" x="-9" dy="0.32em" style="font-size: 12px;">1.80%</text></g><g class="tick" opacity="1" transform="translate(0,99.99999999999997)"><line stroke="currentColor" x2="-6"></line><text fill="currentColor" x="-9" dy="0.32em" style="font-size: 12px;">2.00%</text></g><g class="tick" opacity="1" transform="translate(0,80.00000000000001)"><line stroke="currentColor" x2="-6"></line><text fill="currentColor" x="-9" dy="0.32em" style="font-size: 12px;">2.20%</text></g><g class="tick" opacity="1" transform="translate(0,59.999999999999986)"><line stroke="currentColor" x2="-6"></line><text fill="currentColor" x="-9" dy="0.32em" style="font-size: 12px;">2.40%</text></g><g class="tick" opacity="1" transform="translate(0,39.99999999999999)"><line stroke="currentColor" x2="-6"></line><text fill="currentColor" x="-9" dy="0.32em" style="font-size: 12px;">2.60%</text></g><g class="tick" opacity="1" transform="translate(0,19.999999999999996)"><line stroke="currentColor" x2="-6"></line><text fill="currentColor" x="-9" dy="0.32em" style="font-size: 12px;">2.80%</text></g><g class="tick" opacity="1" transform="translate(0,0)"><line stroke="currentColor" x2="-6"></line><text fill="currentColor" x="-9" dy="0.32em" style="font-size: 12px;">3.00%</text></g></g><g class="grid-lines" fill="none" font-size="10" font-family="sans-serif" text-anchor="end"><path class="domain" stroke="currentColor" d="M410,300H0V0H410"></path><g class="tick" opacity="1" transform="translate(0,300)"><line stroke="currentColor" x2="410" style="stroke: #ccc; fill: none;"></line></g><g class="tick" opacity="1" transform="translate(0,280)"><line stroke="currentColor" x2="410" style="stroke: #ccc; fill: none;"></line></g><g class="tick" opacity="1" transform="translate(0,260)"><line stroke="currentColor" x2="410" style="stroke: #ccc; fill: none;"></line></g><g class="tick" opacity="1" transform="translate(0,240)"><line stroke="currentColor" x2="410" style="stroke: #ccc; fill: none;"></line></g><g class="tick" opacity="1" transform="translate(0,220.00000000000003)"><line stroke="currentColor" x2="410" style="stroke: #ccc; fill: none;"></line></g><g class="tick" opacity="1" transform="translate(0,200)"><line stroke="currentColor" x2="410" style="stroke: #ccc; fill: none;"></line></g><g class="tick" opacity="1" transform="translate(0,180)"><line stroke="currentColor" x2="410" style="stroke: #ccc; fill: none;"></line></g><g class="tick" opacity="1" transform="translate(0,160)"><line stroke="currentColor" x2="410" style="stroke: #ccc; fill: none;"></line></g><g class="tick" opacity="1" transform="translate(0,140)"><line stroke="currentColor" x2="410" style="stroke: #ccc; fill: none;"></line></g><g class="tick" opacity="1" transform="translate(0,120)"><line stroke="currentColor" x2="410" style="stroke: #ccc; fill: none;"></line></g><g class="tick" opacity="1" transform="translate(0,99.99999999999997)"><line stroke="currentColor" x2="410" style="stroke: #ccc; fill: none;"></line></g><g class="tick" opacity="1" transform="translate(0,80.00000000000001)"><line stroke="currentColor" x2="410" style="stroke: #ccc; fill: none;"></line></g><g class="tick" opacity="1" transform="translate(0,59.999999999999986)"><line stroke="currentColor" x2="410" style="stroke: #ccc; fill: none;"></line></g><g class="tick" opacity="1" transform="translate(0,39.99999999999999)"><line stroke="currentColor" x2="410" style="stroke: #ccc; fill: none;"></line></g><g class="tick" opacity="1" transform="translate(0,19.999999999999996)"><line stroke="currentColor" x2="410" style="stroke: #ccc; fill: none;"></line></g><g class="tick" opacity="1" transform="translate(0,0)"><line stroke="currentColor" x2="410" style="stroke: #ccc; fill: none;"></line></g></g><g class="lines"><path class="line" d="M2.175,300L4.28,300L6.457,300L8.562,300L10.737,300L12.912,300L14.876,300L17.048,300L19.153,300L21.328,300L23.433,300L25.607,300L27.782,300L29.887,300L32.065,300L34.17,300L36.344,300L38.519,300L40.484,300L42.656,300L44.76,300L46.935,300L49.04,300L51.215,300L53.39,300L55.495,300L57.672,300L59.777,300L61.952,300L64.127,300L66.091,300L68.263,300L70.368,300L72.543,300L74.648,300L76.822,300L78.997,300L81.102,300L83.28,300L85.385,300L87.559,300L89.734,300L91.769,300L93.941,300L96.046,300L98.22,300L100.325,300L102.5,300L104.675,300L106.78,300L108.957,300L111.062,300L113.237,300L115.412,300L117.376,300L119.548,300L121.653,300L123.828,300L125.933,300L128.107,300L130.282,300L132.387,300L134.565,300L136.67,300L138.844,300L141.019,300L142.984,300L145.156,300L147.26,300L149.435,300L151.54,300L153.715,300L155.89,300L157.995,300L160.172,300L162.277,300L164.452,300L166.627,300L168.591,300L170.763,300L172.868,300L175.043,300L177.148,300L179.322,300L181.497,300L183.602,300L185.78,300L187.885,300L190.059,300L192.234,300L194.269,300L196.441,300L198.546,300L200.72,300L202.825,300L205,300L207.175,300L209.28,300L211.457,300L213.562,300L215.737,300L217.912,300L219.876,300L222.048,300L224.153,300L226.328,300L228.433,300L230.607,300L232.782,300L234.887,300L237.065,300L239.17,300L241.344,299.937L243.519,300L245.484,300L247.656,300L249.76,300L251.935,300L254.04,300L256.215,300L258.39,300L260.495,300L262.672,300L264.777,300L266.952,300L269.127,300L271.091,300L273.263,300L275.368,300L277.543,300L279.648,300L281.822,300L283.997,300L286.102,300L288.28,300L290.385,300L292.559,300L294.734,300L296.769,300L298.941,300L301.046,300L303.22,300L305.325,300L307.5,300L309.675,300L311.78,299.929L313.957,300L316.062,300L318.237,300L320.412,299.923L322.376,300L324.548,300L326.653,300L328.828,300L330.933,300L333.107,299.834L335.282,300L337.387,299.234L339.565,299.235L341.67,298.555L343.844,298.982L346.019,299.377L347.984,298.115L350.156,298.584L352.26,295.383L354.435,293.189L356.54,293.066L358.715,292.919L360.89,290.438L362.995,291.996L365.172,288.922L367.277,286.958L369.452,291.133L371.627,288.303L373.591,285.235L375.763,282.047L377.868,287.531L380.043,284.574L382.148,282.923L384.322,283.176L386.497,281.342L388.602,279.619L390.78,282.845L392.885,279.94L395.059,285.666L397.234,284.571L399.269,287.748L401.441,288.189L403.546,285.411L405.72,285.728L407.825,282.263L410,285.619" data-legend="nuxt3.js" style="stroke: rgb(31, 119, 180); fill: none;"></path><path class="line" d="M2.175,300L4.28,300L6.457,300L8.562,300L10.737,300L12.912,300L14.876,300L17.048,300L19.153,300L21.328,300L23.433,300L25.607,300L27.782,300L29.887,300L32.065,300L34.17,300L36.344,300L38.519,300L40.484,300L42.656,300L44.76,300L46.935,300L49.04,300L51.215,300L53.39,300L55.495,300L57.672,300L59.777,300L61.952,300L64.127,300L66.091,300L68.263,300L70.368,300L72.543,300L74.648,300L76.822,300L78.997,300L81.102,300L83.28,300L85.385,300L87.559,300L89.734,300L91.769,300L93.941,300L96.046,300L98.22,300L100.325,300L102.5,300L104.675,300L106.78,300L108.957,300L111.062,300L113.237,300L115.412,300L117.376,300L119.548,300L121.653,300L123.828,300L125.933,300L128.107,300L130.282,300L132.387,300L134.565,300L136.67,300L138.844,300L141.019,300L142.984,300L145.156,300L147.26,300L149.435,300L151.54,300L153.715,300L155.89,300L157.995,300L160.172,300L162.277,300L164.452,300L166.627,300L168.591,300L170.763,300L172.868,300L175.043,300L177.148,300L179.322,300L181.497,300L183.602,300L185.78,300L187.885,300L190.059,300L192.234,300L194.269,300L196.441,300L198.546,300L200.72,300L202.825,300L205,300L207.175,300L209.28,300L211.457,300L213.562,300L215.737,300L217.912,300L219.876,300L222.048,300L224.153,300L226.328,300L228.433,300L230.607,300L232.782,300L234.887,300L237.065,300L239.17,300L241.344,300L243.519,300L245.484,300L247.656,300L249.76,300L251.935,300L254.04,300L256.215,300L258.39,300L260.495,300L262.672,300L264.777,300L266.952,300L269.127,300L271.091,300L273.263,300L275.368,300L277.543,300L279.648,300L281.822,300L283.997,300L286.102,300L288.28,300L290.385,300L292.559,300L294.734,300L296.769,300L298.941,300L301.046,300L303.22,300L305.325,300L307.5,300L309.675,300L311.78,300L313.957,299.925L316.062,300L318.237,299.928L320.412,300L322.376,299.795L324.548,298.657L326.653,298.258L328.828,297.876L330.933,298.04L333.107,297.427L335.282,295.771L337.387,297.276L339.565,296.005L341.67,295.395L343.844,295.333L346.019,294.75L347.984,293.688L350.156,292.475L352.26,293.466L354.435,293.916L356.54,292.153L358.715,291.574L360.89,294.146L362.995,292.663L365.172,293.722L367.277,287.375L369.452,286.022L371.627,286.412L373.591,282.928L375.763,284.843L377.868,288.291L380.043,289.027L382.148,283.406L384.322,284.858L386.497,283.227L388.602,289.049L390.78,287.881L392.885,286.07L395.059,286.833L397.234,289.885L399.269,286.173L401.441,285.281L403.546,290.978L405.72,288.107L407.825,288.536L410,289.454" data-legend="sveltekit" style="stroke: rgb(255, 127, 14); fill: none;"></path><path class="line" d="M2.175,300L4.28,300L6.457,300L8.562,300L10.737,300L12.912,300L14.876,300L17.048,300L19.153,300L21.328,300L23.433,300L25.607,300L27.782,300L29.887,300L32.065,300L34.17,300L36.344,300L38.519,300L40.484,300L42.656,300L44.76,300L46.935,300L49.04,300L51.215,300L53.39,300L55.495,300L57.672,300L59.777,300L61.952,300L64.127,300L66.091,300L68.263,300L70.368,300L72.543,300L74.648,300L76.822,300L78.997,300L81.102,300L83.28,300L85.385,300L87.559,300L89.734,300L91.769,300L93.941,300L96.046,300L98.22,300L100.325,300L102.5,300L104.675,300L106.78,300L108.957,300L111.062,300L113.237,300L115.412,300L117.376,300L119.548,300L121.653,300L123.828,300L125.933,300L128.107,300L130.282,300L132.387,300L134.565,300L136.67,300L138.844,300L141.019,300L142.984,300L145.156,300L147.26,300L149.435,300L151.54,300L153.715,300L155.89,300L157.995,300L160.172,300L162.277,300L164.452,300L166.627,300L168.591,300L170.763,300L172.868,300L175.043,300L177.148,300L179.322,300L181.497,300L183.602,300L185.78,300L187.885,300L190.059,300L192.234,300L194.269,300L196.441,300L198.546,300L200.72,300L202.825,300L205,300L207.175,300L209.28,300L211.457,299.942L213.562,299.875L215.737,300L217.912,300L219.876,299.849L222.048,299.887L224.153,299.078L226.328,299.149L228.433,298.705L230.607,299.316L232.782,298.751L234.887,298.87L237.065,298.802L239.17,298.399L241.344,298.548L243.519,298.744L245.484,298.302L247.656,298.006L249.76,298.429L251.935,297.505L254.04,297.777L256.215,297.115L258.39,297.116L260.495,296.709L262.672,295.861L264.777,295.467L266.952,292.792L269.127,294.24L271.091,292.744L273.263,294.37L275.368,292.611L277.543,293.717L279.648,292.6L281.822,292.885L283.997,290.045L286.102,290.951L288.28,291.376L290.385,289.816L292.559,288.519L294.734,285.808L296.769,286.619L298.941,285.09L301.046,285.225L303.22,282.656L305.325,282.845L307.5,281.007L309.675,279.737L311.78,278.122L313.957,272.743L316.062,271.857L318.237,262.317L320.412,262.953L322.376,261.874L324.548,260.386L326.653,253.796L328.828,252.963L330.933,246.435L333.107,244.058L335.282,242.142L337.387,239.819L339.565,242.546L341.67,238.962L343.844,230.925L346.019,232.636L347.984,225.814L350.156,222.982L352.26,227.084L354.435,225.537L356.54,217.428L358.715,216.819L360.89,213.746L362.995,218.436L365.172,214.696L367.277,197.542L369.452,194.327L371.627,197.916L373.591,183.496L375.763,175.21L377.868,150.063L380.043,142.878L382.148,134.064L384.322,129.068L386.497,137.165L388.602,134.824L390.78,133.331L392.885,118.905L395.059,109.994L397.234,108.503L399.269,102.219L401.441,109.384L403.546,106.699L405.72,110.578L407.825,95.812L410,109.209" data-legend="next.js" style="stroke: rgb(44, 160, 44); fill: none;"></path></g></g><g transform="translate(20, 150)"><text font-family="sans-serif" transform="rotate(-90)" x="-50" y="0" dy="1em" class="axis-label y-axis-label" style="text-anchor: middle; font-weight: bold;">% of Stack Overflow questions that month</text></g><g font-family="sans-serif" class="legend" transform="translate(530, 20)" style="font-size: 12px;"><rect y="0" width="10" height="10" style="fill: rgb(31, 119, 180);"></rect><rect y="15" width="10" height="10" style="fill: rgb(255, 127, 14);"></rect><rect y="30" width="10" height="10" style="fill: rgb(44, 160, 44);"></rect><text font-size="10px" x="13" y="5" text-anchor="left">nuxt3.js</text><text font-size="10px" x="13" y="20" text-anchor="left">sveltekit</text><text font-size="10px" x="13" y="35" text-anchor="left">next.js</text></g></svg>