<svg xmlns="http://www.w3.org/2000/svg" version="1.1" class="w100 h-auto" width="660" height="400" viewBox="0 0 585 395"><g></g><g class="chart-area" font-family="sans-serif" transform="translate(100, 20)"><g transform="translate(0,300)" fill="none" font-size="10" font-family="sans-serif" text-anchor="middle"><path class="domain" stroke="currentColor" d="M0,6V0H410V6"></path><g class="tick" opacity="1" transform="translate(36.34447011179557,0)"><line stroke="currentColor" y2="6"></line><text fill="currentColor" y="9" dy="0.71em" style="font-size: 12px;">2010</text></g><g class="tick" opacity="1" transform="translate(87.55939139858543,0)"><line stroke="currentColor" y2="6"></line><text fill="currentColor" y="9" dy="0.71em" style="font-size: 12px;">2012</text></g><g class="tick" opacity="1" transform="translate(138.84447011179557,0)"><line stroke="currentColor" y2="6"></line><text fill="currentColor" y="9" dy="0.71em" style="font-size: 12px;">2014</text></g><g class="tick" opacity="1" transform="translate(190.05939139858543,0)"><line stroke="currentColor" y2="6"></line><text fill="currentColor" y="9" dy="0.71em" style="font-size: 12px;">2016</text></g><g class="tick" opacity="1" transform="translate(241.34447011179557,0)"><line stroke="currentColor" y2="6"></line><text fill="currentColor" y="9" dy="0.71em" style="font-size: 12px;">2018</text></g><g class="tick" opacity="1" transform="translate(292.5593913985855,0)"><line stroke="currentColor" y2="6"></line><text fill="currentColor" y="9" dy="0.71em" style="font-size: 12px;">2020</text></g><g class="tick" opacity="1" transform="translate(343.8444701117956,0)"><line stroke="currentColor" y2="6"></line><text fill="currentColor" y="9" dy="0.71em" style="font-size: 12px;">2022</text></g><g class="tick" opacity="1" transform="translate(395.0593913985855,0)"><line stroke="currentColor" y2="6"></line><text fill="currentColor" y="9" dy="0.71em" style="font-size: 12px;">2024</text></g></g><g class="grid-lines" transform="translate(0,300)" fill="none" font-size="10" font-family="sans-serif" text-anchor="middle"><path class="domain" stroke="currentColor" d="M0,-300V0H410V-300"></path><g class="tick" opacity="1" transform="translate(36.34447011179557,0)"><line stroke="currentColor" y2="-300" style="stroke: #ccc; fill: none;"></line></g><g class="tick" opacity="1" transform="translate(87.55939139858543,0)"><line stroke="currentColor" y2="-300" style="stroke: #ccc; fill: none;"></line></g><g class="tick" opacity="1" transform="translate(138.84447011179557,0)"><line stroke="currentColor" y2="-300" style="stroke: #ccc; fill: none;"></line></g><g class="tick" opacity="1" transform="translate(190.05939139858543,0)"><line stroke="currentColor" y2="-300" style="stroke: #ccc; fill: none;"></line></g><g class="tick" opacity="1" transform="translate(241.34447011179557,0)"><line stroke="currentColor" y2="-300" style="stroke: #ccc; fill: none;"></line></g><g class="tick" opacity="1" transform="translate(292.5593913985855,0)"><line stroke="currentColor" y2="-300" style="stroke: #ccc; fill: none;"></line></g><g class="tick" opacity="1" transform="translate(343.8444701117956,0)"><line stroke="currentColor" y2="-300" style="stroke: #ccc; fill: none;"></line></g><g class="tick" opacity="1" transform="translate(395.0593913985855,0)"><line stroke="currentColor" y2="-300" style="stroke: #ccc; fill: none;"></line></g></g><text x="205" y="360" class="axis-label x-axis-label" style="text-anchor: middle; font-weight: bold;">Year</text><g fill="none" font-size="10" font-family="sans-serif" text-anchor="end"><path class="domain" stroke="currentColor" d="M-6,300H0V0H-6"></path><g class="tick" opacity="1" transform="translate(0,300)"><line stroke="currentColor" x2="-6"></line><text fill="currentColor" x="-9" dy="0.32em" style="font-size: 12px;">0.00%</text></g><g class="tick" opacity="1" transform="translate(0,278.57142857142856)"><line stroke="currentColor" x2="-6"></line><text fill="currentColor" x="-9" dy="0.32em" style="font-size: 12px;">0.50%</text></g><g class="tick" opacity="1" transform="translate(0,257.14285714285717)"><line stroke="currentColor" x2="-6"></line><text fill="currentColor" x="-9" dy="0.32em" style="font-size: 12px;">1.00%</text></g><g class="tick" opacity="1" transform="translate(0,235.71428571428575)"><line stroke="currentColor" x2="-6"></line><text fill="currentColor" x="-9" dy="0.32em" style="font-size: 12px;">1.50%</text></g><g class="tick" opacity="1" transform="translate(0,214.28571428571428)"><line stroke="currentColor" x2="-6"></line><text fill="currentColor" x="-9" dy="0.32em" style="font-size: 12px;">2.00%</text></g><g class="tick" opacity="1" transform="translate(0,192.85714285714283)"><line stroke="currentColor" x2="-6"></line><text fill="currentColor" x="-9" dy="0.32em" style="font-size: 12px;">2.50%</text></g><g class="tick" opacity="1" transform="translate(0,171.42857142857144)"><line stroke="currentColor" x2="-6"></line><text fill="currentColor" x="-9" dy="0.32em" style="font-size: 12px;">3.00%</text></g><g class="tick" opacity="1" transform="translate(0,150)"><line stroke="currentColor" x2="-6"></line><text fill="currentColor" x="-9" dy="0.32em" style="font-size: 12px;">3.50%</text></g><g class="tick" opacity="1" transform="translate(0,128.57142857142858)"><line stroke="currentColor" x2="-6"></line><text fill="currentColor" x="-9" dy="0.32em" style="font-size: 12px;">4.00%</text></g><g class="tick" opacity="1" transform="translate(0,107.14285714285717)"><line stroke="currentColor" x2="-6"></line><text fill="currentColor" x="-9" dy="0.32em" style="font-size: 12px;">4.50%</text></g><g class="tick" opacity="1" transform="translate(0,85.71428571428571)"><line stroke="currentColor" x2="-6"></line><text fill="currentColor" x="-9" dy="0.32em" style="font-size: 12px;">5.00%</text></g><g class="tick" opacity="1" transform="translate(0,64.28571428571429)"><line stroke="currentColor" x2="-6"></line><text fill="currentColor" x="-9" dy="0.32em" style="font-size: 12px;">5.50%</text></g><g class="tick" opacity="1" transform="translate(0,42.857142857142904)"><line stroke="currentColor" x2="-6"></line><text fill="currentColor" x="-9" dy="0.32em" style="font-size: 12px;">6.00%</text></g><g class="tick" opacity="1" transform="translate(0,21.428571428571452)"><line stroke="currentColor" x2="-6"></line><text fill="currentColor" x="-9" dy="0.32em" style="font-size: 12px;">6.50%</text></g><g class="tick" opacity="1" transform="translate(0,0)"><line stroke="currentColor" x2="-6"></line><text fill="currentColor" x="-9" dy="0.32em" style="font-size: 12px;">7.00%</text></g></g><g class="grid-lines" fill="none" font-size="10" font-family="sans-serif" text-anchor="end"><path class="domain" stroke="currentColor" d="M410,300H0V0H410"></path><g class="tick" opacity="1" transform="translate(0,300)"><line stroke="currentColor" x2="410" style="stroke: #ccc; fill: none;"></line></g><g class="tick" opacity="1" transform="translate(0,278.57142857142856)"><line stroke="currentColor" x2="410" style="stroke: #ccc; fill: none;"></line></g><g class="tick" opacity="1" transform="translate(0,257.14285714285717)"><line stroke="currentColor" x2="410" style="stroke: #ccc; fill: none;"></line></g><g class="tick" opacity="1" transform="translate(0,235.71428571428575)"><line stroke="currentColor" x2="410" style="stroke: #ccc; fill: none;"></line></g><g class="tick" opacity="1" transform="translate(0,214.28571428571428)"><line stroke="currentColor" x2="410" style="stroke: #ccc; fill: none;"></line></g><g class="tick" opacity="1" transform="translate(0,192.85714285714283)"><line stroke="currentColor" x2="410" style="stroke: #ccc; fill: none;"></line></g><g class="tick" opacity="1" transform="translate(0,171.42857142857144)"><line stroke="currentColor" x2="410" style="stroke: #ccc; fill: none;"></line></g><g class="tick" opacity="1" transform="translate(0,150)"><line stroke="currentColor" x2="410" style="stroke: #ccc; fill: none;"></line></g><g class="tick" opacity="1" transform="translate(0,128.57142857142858)"><line stroke="currentColor" x2="410" style="stroke: #ccc; fill: none;"></line></g><g class="tick" opacity="1" transform="translate(0,107.14285714285717)"><line stroke="currentColor" x2="410" style="stroke: #ccc; fill: none;"></line></g><g class="tick" opacity="1" transform="translate(0,85.71428571428571)"><line stroke="currentColor" x2="410" style="stroke: #ccc; fill: none;"></line></g><g class="tick" opacity="1" transform="translate(0,64.28571428571429)"><line stroke="currentColor" x2="410" style="stroke: #ccc; fill: none;"></line></g><g class="tick" opacity="1" transform="translate(0,42.857142857142904)"><line stroke="currentColor" x2="410" style="stroke: #ccc; fill: none;"></line></g><g class="tick" opacity="1" transform="translate(0,21.428571428571452)"><line stroke="currentColor" x2="410" style="stroke: #ccc; fill: none;"></line></g><g class="tick" opacity="1" transform="translate(0,0)"><line stroke="currentColor" x2="410" style="stroke: #ccc; fill: none;"></line></g></g><g class="lines"><path class="line" d="M2.175,300L4.28,300L6.457,300L8.562,300L10.737,300L12.912,300L14.876,300L17.048,300L19.153,300L21.328,300L23.433,300L25.607,300L27.782,300L29.887,300L32.065,300L34.17,300L36.344,300L38.519,300L40.484,300L42.656,300L44.76,300L46.935,300L49.04,300L51.215,300L53.39,300L55.495,300L57.672,300L59.777,300L61.952,300L64.127,300L66.091,300L68.263,300L70.368,300L72.543,300L74.648,300L76.822,300L78.997,300L81.102,300L83.28,300L85.385,300L87.559,300L89.734,300L91.769,300L93.941,300L96.046,300L98.22,300L100.325,300L102.5,300L104.675,300L106.78,300L108.957,300L111.062,300L113.237,300L115.412,300L117.376,300L119.548,299.975L121.653,300L123.828,300L125.933,300L128.107,300L130.282,300L132.387,300L134.565,299.975L136.67,299.974L138.844,300L141.019,300L142.984,300L145.156,300L147.26,299.975L149.435,300L151.54,299.976L153.715,299.974L155.89,300L157.995,299.975L160.172,299.948L162.277,299.972L164.452,299.974L166.627,299.923L168.591,299.521L170.763,299.681L172.868,299.044L175.043,298.616L177.148,298.581L179.322,298.281L181.497,298.124L183.602,297.164L185.78,294.554L187.885,289.074L190.059,278.14L192.234,275.271L194.269,270.462L196.441,266.443L198.546,257.187L200.72,248.654L202.825,242.619L205,236.85L207.175,226.735L209.28,216.387L211.457,218.977L213.562,212.937L215.737,211.18L217.912,202.155L219.876,202.575L222.048,200.205L224.153,197.564L226.328,189.433L228.433,181.59L230.607,176.175L232.782,176.582L234.887,177.992L237.065,169.523L239.17,172.458L241.344,170.078L243.519,174.53L245.484,177.651L247.656,171.674L249.76,168.393L251.935,165.525L254.04,168.819L256.215,163.172L258.39,168.725L260.495,170.77L262.672,174.557L264.777,171.068L266.952,173.255L269.127,169.632L271.091,172.361L273.263,178.175L275.368,175.864L277.543,169.107L279.648,176.627L281.822,179.549L283.997,173.213L286.102,179.753L288.28,176.011L290.385,178.477L292.559,189.942L294.734,180.478L296.769,189.701L298.941,196.025L301.046,199.595L303.22,201.623L305.325,193.093L307.5,202.789L309.675,202.848L311.78,209.455L313.957,215.847L316.062,214.727L318.237,217.915L320.412,219.59L322.376,213.858L324.548,220.515L326.653,215.793L328.828,213.297L330.933,212.163L333.107,213.098L335.282,213.72L337.387,221.31L339.565,225.62L341.67,220.865L343.844,222.791L346.019,221.246L347.984,223.238L350.156,229.128L352.26,223.537L354.435,221.269L356.54,224.531L358.715,226.935L360.89,229.748L362.995,236.295L365.172,232.144L367.277,225.146L369.452,224.624L371.627,223.589L373.591,229.751L375.763,228.166L377.868,216.06L380.043,229.186L382.148,225.916L384.322,223.787L386.497,220.844L388.602,221.714L390.78,218.183L392.885,218.806L395.059,211.926L397.234,216.681L399.269,220.488L401.441,213.635L403.546,219.378L405.72,210.201L407.825,211.101L410,218.438" data-legend="angular" style="stroke: rgb(31, 119, 180); fill: none;"></path><path class="line" d="M2.175,300L4.28,300L6.457,300L8.562,300L10.737,300L12.912,300L14.876,300L17.048,300L19.153,300L21.328,300L23.433,300L25.607,300L27.782,300L29.887,300L32.065,300L34.17,300L36.344,300L38.519,300L40.484,300L42.656,300L44.76,300L46.935,300L49.04,300L51.215,300L53.39,300L55.495,300L57.672,300L59.777,300L61.952,300L64.127,300L66.091,300L68.263,300L70.368,300L72.543,300L74.648,300L76.822,300L78.997,300L81.102,300L83.28,300L85.385,300L87.559,300L89.734,300L91.769,300L93.941,300L96.046,300L98.22,300L100.325,300L102.5,300L104.675,300L106.78,300L108.957,300L111.062,300L113.237,300L115.412,300L117.376,300L119.548,300L121.653,300L123.828,300L125.933,300L128.107,300L130.282,300L132.387,300L134.565,300L136.67,300L138.844,300L141.019,300L142.984,300L145.156,300L147.26,300L149.435,300L151.54,300L153.715,300L155.89,300L157.995,300L160.172,300L162.277,300L164.452,300L166.627,300L168.591,300L170.763,300L172.868,300L175.043,300L177.148,300L179.322,300L181.497,300L183.602,300L185.78,300L187.885,300L190.059,300L192.234,300L194.269,300L196.441,300L198.546,300L200.72,300L202.825,300L205,300L207.175,300L209.28,300L211.457,300L213.562,300L215.737,300L217.912,299.975L219.876,300L222.048,300L224.153,300L226.328,300L228.433,299.976L230.607,300L232.782,300L234.887,300L237.065,299.974L239.17,300L241.344,300L243.519,300L245.484,300L247.656,300L249.76,299.948L251.935,300L254.04,300L256.215,300L258.39,300L260.495,300L262.672,300L264.777,299.967L266.952,300L269.127,300L271.091,300L273.263,300L275.368,300L277.543,300L279.648,300L281.822,299.968L283.997,299.936L286.102,299.943L288.28,299.941L290.385,299.705L292.559,299.763L294.734,299.91L296.769,299.944L298.941,299.596L301.046,299.651L303.22,299.595L305.325,299.398L307.5,298.887L309.675,297.177L311.78,295.833L313.957,294.787L316.062,295.785L318.237,295.031L320.412,295.049L322.376,294.183L324.548,292.678L326.653,292.761L328.828,291.235L330.933,291.216L333.107,289.862L335.282,291.009L337.387,290.77L339.565,289.692L341.67,291.293L343.844,289.344L346.019,289.321L347.984,287.704L350.156,288.201L352.26,287.605L354.435,283.304L356.54,285.141L358.715,286.593L360.89,282.437L362.995,283.543L365.172,283.184L367.277,283.053L369.452,281.894L371.627,282.834L373.591,281.313L375.763,278.62L377.868,277.777L380.043,279.076L382.148,277.146L384.322,281.037L386.497,278.757L388.602,277.186L390.78,277.539L392.885,278.348L395.059,276.785L397.234,280.823L399.269,282.747L401.441,283.179L403.546,282.888L405.72,278.315L407.825,279.699L410,282.537" data-legend="vuejs3" style="stroke: rgb(255, 127, 14); fill: none;"></path><path class="line" d="M2.175,300L4.28,300L6.457,300L8.562,300L10.737,300L12.912,300L14.876,300L17.048,300L19.153,300L21.328,300L23.433,300L25.607,300L27.782,300L29.887,300L32.065,300L34.17,300L36.344,300L38.519,300L40.484,300L42.656,300L44.76,300L46.935,300L49.04,300L51.215,300L53.39,300L55.495,300L57.672,300L59.777,300L61.952,300L64.127,300L66.091,300L68.263,300L70.368,300L72.543,300L74.648,300L76.822,300L78.997,300L81.102,300L83.28,300L85.385,300L87.559,300L89.734,300L91.769,300L93.941,300L96.046,300L98.22,300L100.325,300L102.5,300L104.675,300L106.78,300L108.957,300L111.062,300L113.237,300L115.412,300L117.376,300L119.548,300L121.653,300L123.828,300L125.933,300L128.107,300L130.282,300L132.387,300L134.565,300L136.67,300L138.844,300L141.019,300L142.984,300L145.156,300L147.26,300L149.435,300L151.54,300L153.715,300L155.89,300L157.995,300L160.172,300L162.277,300L164.452,300L166.627,300L168.591,300L170.763,300L172.868,300L175.043,300L177.148,300L179.322,300L181.497,300L183.602,300L185.78,300L187.885,300L190.059,300L192.234,300L194.269,300L196.441,300L198.546,300L200.72,300L202.825,300L205,300L207.175,300L209.28,300L211.457,300L213.562,300L215.737,300L217.912,299.975L219.876,299.935L222.048,299.951L224.153,299.954L226.328,300L228.433,299.879L230.607,299.878L232.782,299.946L234.887,299.949L237.065,300L239.17,299.881L241.344,299.892L243.519,299.915L245.484,299.749L247.656,299.786L249.76,299.845L251.935,299.859L254.04,299.837L256.215,299.918L258.39,299.94L260.495,299.919L262.672,299.884L264.777,299.934L266.952,299.883L269.127,299.97L271.091,299.919L273.263,299.801L275.368,299.223L277.543,298.622L279.648,298.587L281.822,298.856L283.997,298.09L286.102,298.204L288.28,298.445L290.385,298.162L292.559,298.399L294.734,298.652L296.769,298.33L298.941,298.385L301.046,297.905L303.22,297.725L305.325,298.378L307.5,297.892L309.675,298.005L311.78,297.702L313.957,297.393L316.062,297.893L318.237,297.391L320.412,297.128L322.376,297.194L324.548,297.602L326.653,297.435L328.828,297.101L330.933,297.795L333.107,297.261L335.282,296.302L337.387,296.79L339.565,295.884L341.67,295.859L343.844,295.054L346.019,295.652L347.984,295.117L350.156,294.84L352.26,294.81L354.435,295.057L356.54,293.783L358.715,293.201L360.89,294.438L362.995,295.263L365.172,295.964L367.277,292.309L369.452,291.506L371.627,292.86L373.591,291.744L375.763,292.495L377.868,292.766L380.043,293.253L382.148,292.336L384.322,290.843L386.497,291.842L388.602,293.938L390.78,293.795L392.885,293.154L395.059,294.571L397.234,293.314L399.269,293.099L401.441,294.237L403.546,295.064L405.72,293.05L407.825,294.16L410,294.248" data-legend="svelte" style="stroke: rgb(44, 160, 44); fill: none;"></path><path class="line" d="M2.175,300L4.28,300L6.457,300L8.562,300L10.737,300L12.912,300L14.876,300L17.048,300L19.153,300L21.328,300L23.433,300L25.607,300L27.782,300L29.887,300L32.065,300L34.17,300L36.344,300L38.519,300L40.484,300L42.656,300L44.76,300L46.935,300L49.04,300L51.215,300L53.39,300L55.495,300L57.672,300L59.777,300L61.952,300L64.127,300L66.091,300L68.263,300L70.368,300L72.543,300L74.648,300L76.822,300L78.997,300L81.102,300L83.28,300L85.385,300L87.559,300L89.734,299.965L91.769,300L93.941,300L96.046,300L98.22,300L100.325,300L102.5,300L104.675,300L106.78,300L108.957,300L111.062,300L113.237,300L115.412,300L117.376,300L119.548,299.975L121.653,299.974L123.828,299.945L125.933,299.951L128.107,299.975L130.282,299.765L132.387,299.883L134.565,299.828L136.67,299.425L138.844,298.923L141.019,298.918L142.984,299.063L145.156,299.265L147.26,298.402L149.435,298.161L151.54,298.021L153.715,297.988L155.89,297.498L157.995,296.622L160.172,295.95L162.277,295.264L164.452,294.81L166.627,291.515L168.591,291.327L170.763,289.573L172.868,289.669L175.043,287.893L177.148,285.77L179.322,285.535L181.497,281.728L183.602,280.683L185.78,276.832L187.885,274.381L190.059,272.203L192.234,273.545L194.269,268.701L196.441,267.169L198.546,264.844L200.72,260.827L202.825,255.232L205,251.678L207.175,253.119L209.28,253.21L211.457,251.361L213.562,246.036L215.737,244.687L217.912,243.813L219.876,243.985L222.048,236.059L224.153,229.935L226.328,226.094L228.433,219.878L230.607,219.536L232.782,224.205L234.887,219.681L237.065,220.066L239.17,215.49L241.344,211.122L243.519,207.655L245.484,204.806L247.656,202.087L249.76,198.776L251.935,191.919L254.04,186.864L256.215,178.558L258.39,177.649L260.495,181.566L262.672,181.041L264.777,172.121L266.952,169.233L269.127,166.42L271.091,163.843L273.263,168.525L275.368,157.036L277.543,155.162L279.648,152.782L281.822,140.479L283.997,142.582L286.102,145.992L288.28,140.019L290.385,131.91L292.559,124.464L294.734,125.916L296.769,115.732L298.941,104.736L301.046,106.71L303.22,98.442L305.325,88.018L307.5,86.487L309.675,86.794L311.78,93.172L313.957,93.013L316.062,87.013L318.237,75.237L320.412,86.465L322.376,77.79L324.548,71.33L326.653,73.285L328.828,75.187L330.933,66.164L333.107,61.065L335.282,49.789L337.387,66.266L339.565,66.371L341.67,54.352L343.844,41.569L346.019,51.762L347.984,50.04L350.156,27.438L352.26,37.57L354.435,36.798L356.54,29.173L358.715,40.047L360.89,43.496L362.995,56.002L365.172,59.122L367.277,48.386L369.452,53.53L371.627,58.715L373.591,68.441L375.763,69.298L377.868,73.465L380.043,62.954L382.148,56.826L384.322,66.099L386.497,84.583L388.602,83.068L390.78,84.834L392.885,73.611L395.059,75.493L397.234,82.886L399.269,83.366L401.441,90.979L403.546,89.972L405.72,98.345L407.825,93.279L410,98.457" data-legend="reactjs" style="stroke: rgb(214, 39, 40); fill: none;"></path></g></g><g transform="translate(20, 150)"><text font-family="sans-serif" transform="rotate(-90)" x="-50" y="0" dy="1em" class="axis-label y-axis-label" style="text-anchor: middle; font-weight: bold;">% of Stack Overflow questions that month</text></g><g font-family="sans-serif" class="legend" transform="translate(530, 20)" style="font-size: 12px;"><rect y="0" width="10" height="10" style="fill: rgb(31, 119, 180);"></rect><rect y="15" width="10" height="10" style="fill: rgb(255, 127, 14);"></rect><rect y="30" width="10" height="10" style="fill: rgb(44, 160, 44);"></rect><rect y="45" width="10" height="10" style="fill: rgb(214, 39, 40);"></rect><text font-size="10px" x="13" y="5" text-anchor="left">angular</text><text font-size="10px" x="13" y="20" text-anchor="left">vuejs3</text><text font-size="10px" x="13" y="35" text-anchor="left">svelte</text><text font-size="10px" x="13" y="50" text-anchor="left">reactjs</text></g></svg>